<svg xmlns="http://www.w3.org/2000/svg" viewBox="0 0 566.93 142.82"><defs><style>.cls-1{fill:#00aea8;}.cls-2{fill:#000b33;}</style></defs><g id="Layer_1" data-name="Layer 1"><path class="cls-1" d="M69.43,17.68H22.34a1,1,0,0,0-1,1V93.58a.82.82,0,0,0,.82.82h5.61a.82.82,0,0,0,.82-.82V58.47a.06.06,0,0,1,.06-.06h40a.82.82,0,0,0,.82-.82v-5a.82.82,0,0,0-.82-.82h-40a.06.06,0,0,1-.06-.06V24.42a.06.06,0,0,1,.06-.06h40.8a.82.82,0,0,0,.82-.82v-5A.82.82,0,0,0,69.43,17.68Z"/><rect class="cls-1" x="108.11" y="34.23" width="6.68" height="60.17" rx="0.82"/><path class="cls-2" d="M237.18,24.36H278a.83.83,0,0,0,.83-.82v-5a.83.83,0,0,0-.83-.82H230.69a.82.82,0,0,0-.82.82V93.58a.82.82,0,0,0,.82.82H278a.83.83,0,0,0,.83-.82v-5a.82.82,0,0,0-.83-.82h-40.8a.06.06,0,0,1-.06-.06V58.47a.06.06,0,0,1,.06-.06h40a.82.82,0,0,0,.82-.82v-5a.82.82,0,0,0-.82-.82h-40a.06.06,0,0,1-.06-.06V24.42A.06.06,0,0,1,237.18,24.36Z"/><path class="cls-2" d="M337.16,17.73h-.44v0l-.16,0h-24a.89.89,0,0,0-.88.88V93.69a.88.88,0,0,0,.88.88h24.6C360,94.57,376,78.8,376,56.21,376,33.91,359.65,17.73,337.16,17.73Zm31.11,38.48c0,18.88-12.5,31.56-31.11,31.56H319.05V24.53h18.11C355.77,24.53,368.27,37.26,368.27,56.21Z"/><path class="cls-2" d="M466.32,55.94H431.9a.82.82,0,0,0-.82.82v5a.82.82,0,0,0,.82.83h27.93a.06.06,0,0,1,.06,0V79.91a.86.86,0,0,1-.2.48A31.72,31.72,0,0,1,438,89.2c-18.13,0-31.28-13.92-31.28-33.1s13.15-33,31.29-33c7.62-.52,18.11,4.17,23.38,10.45l.23.27,4.83-3.48a.75.75,0,0,0,.32-.54.74.74,0,0,0-.19-.6c-7.39-8.48-17-12.78-28.58-12.78-22.53,0-38.87,16.68-38.87,39.67S415.42,95.88,438,95.88a38.9,38.9,0,0,0,28.8-12.44,1.74,1.74,0,0,0,.39-1V56.76A.82.82,0,0,0,466.32,55.94Z"/><path class="cls-2" d="M525,62.56c14.22-.83,20.7-12.1,20.7-22.29a21.22,21.22,0,0,0-6.11-15.45,24.32,24.32,0,0,0-17.39-7.14H494.29a.82.82,0,0,0-.82.82V93.58a.82.82,0,0,0,.82.82h5.61a.82.82,0,0,0,.82-.82V63a.06.06,0,0,1,.06-.06h15.86a.56.56,0,0,1,.37.19l20.81,30.71a1.32,1.32,0,0,0,1,.53h7a.6.6,0,0,0,.57-.31.46.46,0,0,0,.06-.28l.08-.06ZM500.34,24.42a.44.44,0,0,1,.44-.44h20.86c9.92,0,16.85,6.69,16.85,16.28h0a14.4,14.4,0,0,1-3.83,11,17.66,17.66,0,0,1-13,5.38H500.78a.44.44,0,0,1-.44-.44Z"/><path class="cls-2" d="M156.84,93.05a.94.94,0,0,0,.93.94h42.17a.93.93,0,0,0,.93-.94V88.24a.93.93,0,0,0-.93-.94H165a.93.93,0,0,1-.94-.93V71l-7.25,4.67Z"/><path class="cls-1" d="M164.09,71V18.61a.94.94,0,0,0-.94-.93h-5.38a.93.93,0,0,0-.93.93V75.69Z"/><path class="cls-1" d="M111.45,17.68a4.94,4.94,0,0,0,0,9.87,4.94,4.94,0,1,0,0-9.87Z"/><path class="cls-2" d="M505.63,129.66,505.4,131a4.62,4.62,0,0,0,1.08.14,2.82,2.82,0,0,0,2.79-1.93L514,117.8h-1.61l-3.14,7.78-3.16-7.78h-1.6l4,9.58-.63,1.44a1.36,1.36,0,0,1-1.41,1,2.25,2.25,0,0,1-.81-.16m-8.58-2.14a2.36,2.36,0,0,0,1.76-.61l-.43-1.1a1.4,1.4,0,0,1-1,.4c-.65,0-1-.52-1-1.22v-5.9h1.92V117.8h-1.92v-2.6h-1.48v2.6h-1.57v1.29h1.57v6.21a1.94,1.94,0,0,0,2.11,2.22m-11.8-.23h1.48V117.8h-1.48ZM486,116.2a1,1,0,0,0,1-1,1,1,0,0,0-2,0,1,1,0,0,0,1,1m-12.1,11.09h1.47v-6.72a3.48,3.48,0,0,1,2.58-1.52,2.61,2.61,0,0,1,.59.06V117.6a4.05,4.05,0,0,0-3.17,1.73V117.8h-1.47Zm-9.29-2.74a3.51,3.51,0,0,1-2.83,1.56c-1.91,0-3.05-1.54-3.05-3.62s1.14-3.61,3.05-3.61a3.48,3.48,0,0,1,2.83,1.53Zm-6.88,5.17a4.85,4.85,0,0,0,3.83,1.42c2.32,0,4.52-1,4.52-4.13V117.8h-1.47v1.43a4,4,0,0,0-3.18-1.67c-2.5,0-4.23,1.89-4.23,4.93s1.75,4.91,4.23,4.91a4,4,0,0,0,3.18-1.69v1.36c0,2.08-1.48,2.85-3,2.85a3.6,3.6,0,0,1-3.08-1.3Zm-11.85-10.94a3.08,3.08,0,0,1,3.13,3.16h-6.23a3.17,3.17,0,0,1,3.1-3.16m-4.65,3.75a4.7,4.7,0,0,0,4.83,5,5.16,5.16,0,0,0,3.77-1.45l-.7-1a4.15,4.15,0,0,1-2.93,1.2,3.35,3.35,0,0,1-3.42-3.28h7.68v-.37c0-2.85-1.69-5.09-4.56-5.09a4.74,4.74,0,0,0-4.67,5m-7.47,5a2.36,2.36,0,0,0,1.76-.61l-.43-1.1a1.4,1.4,0,0,1-1,.4c-.65,0-1-.52-1-1.22v-5.9H435V117.8h-1.92v-2.6h-1.48v2.6h-1.57v1.29h1.57v6.21a1.94,1.94,0,0,0,2.11,2.22M422,127.29h1.48v-6.66c0-2.07-1-3.07-3-3.07a4.74,4.74,0,0,0-3.38,1.61V117.8h-1.47v9.49h1.47v-6.94a3.65,3.65,0,0,1,2.81-1.47c1.28,0,2.12.53,2.12,2.2Zm-16,0h1.63V114.18H406Z"/><path class="cls-1" d="M385.45,126.05l3.14-3.54L385.45,119H384l3.15,3.48L384,126.05Zm-2.83,0,3.14-3.54L382.62,119h-1.48l3.15,3.48-3.15,3.54Z"/><path class="cls-2" d="M356.82,129.66l-.23,1.34a4.62,4.62,0,0,0,1.08.14,2.83,2.83,0,0,0,2.79-1.93l4.75-11.41H363.6l-3.14,7.78-3.17-7.78H355.7l4,9.58-.63,1.44a1.37,1.37,0,0,1-1.41,1,2.25,2.25,0,0,1-.81-.16m-15.28-7.13a4.7,4.7,0,0,0,4.74,5,4.08,4.08,0,0,0,3.48-1.65l-1-.9a2.87,2.87,0,0,1-2.41,1.24c-2,0-3.28-1.58-3.28-3.68s1.25-3.65,3.28-3.65a2.81,2.81,0,0,1,2.41,1.23l1-.9a4.08,4.08,0,0,0-3.48-1.65,4.69,4.69,0,0,0-4.74,5m-8.73,4.76h1.48v-6.66c0-2.07-1.05-3.07-3-3.07a4.72,4.72,0,0,0-3.38,1.61V117.8h-1.47v9.49h1.47v-6.94a3.65,3.65,0,0,1,2.81-1.47c1.28,0,2.12.53,2.12,2.2Zm-18.23-8.51a3.07,3.07,0,0,1,3.12,3.16h-6.23a3.17,3.17,0,0,1,3.11-3.16m-4.66,3.75a4.71,4.71,0,0,0,4.84,5,5.17,5.17,0,0,0,3.77-1.45l-.71-1a4.15,4.15,0,0,1-2.93,1.2,3.35,3.35,0,0,1-3.42-3.28h7.69v-.37c0-2.85-1.69-5.09-4.56-5.09a4.75,4.75,0,0,0-4.68,5m-10.62,4.76h1.48v-6.72a3.46,3.46,0,0,1,2.57-1.52,2.55,2.55,0,0,1,.59.06V117.6a4,4,0,0,0-3.16,1.73V117.8H299.3Zm-9.28-2a3.16,3.16,0,0,1-2.61,1.18,2.09,2.09,0,1,1,0-4.15,3.19,3.19,0,0,1,2.61,1.18Zm0,2h1.48v-6.53c0-2.3-1.67-3.2-3.68-3.2a5,5,0,0,0-3.79,1.57l.69,1a3.77,3.77,0,0,1,2.91-1.31c1.37,0,2.39.72,2.39,2v1.71a4,4,0,0,0-3.14-1.3,3.11,3.11,0,0,0-3.32,3.13,3.16,3.16,0,0,0,3.32,3.14,4.09,4.09,0,0,0,3.14-1.31Zm-14.72-4.76c0,2.1-1.14,3.68-3.05,3.68a3.53,3.53,0,0,1-2.83-1.54v-4.28a3.51,3.51,0,0,1,2.83-1.51c1.91,0,3.05,1.55,3.05,3.65m-5.88,8.37v-5.05a3.91,3.91,0,0,0,3.21,1.67c2.49,0,4.22-1.92,4.22-5s-1.73-5-4.22-5a4,4,0,0,0-3.21,1.65V117.8H268v13.1ZM253.14,126a5,5,0,0,0,3.83,1.49c2.46,0,3.73-1.28,3.73-2.87,0-2.1-1.9-2.57-3.55-2.94-1.24-.3-2.32-.59-2.32-1.52s.8-1.43,2.1-1.43a3.69,3.69,0,0,1,2.83,1.2l.69-1a4.81,4.81,0,0,0-3.52-1.38c-2.26,0-3.54,1.26-3.54,2.73,0,2,1.83,2.4,3.44,2.77,1.28.32,2.44.65,2.44,1.69s-.79,1.57-2.24,1.57a4.29,4.29,0,0,1-3.12-1.35Zm-8.49,1.26h1.48v-6.66c0-2.07-1-3.07-3-3.07a4.74,4.74,0,0,0-3.38,1.61V117.8h-1.47v9.49h1.47v-6.94a3.65,3.65,0,0,1,2.81-1.47c1.28,0,2.12.53,2.12,2.2Zm-15.68-2a3.18,3.18,0,0,1-2.62,1.18,2.09,2.09,0,1,1,0-4.15,3.21,3.21,0,0,1,2.62,1.18Zm0,2h1.47v-6.53c0-2.3-1.67-3.2-3.67-3.2a5,5,0,0,0-3.8,1.57l.69,1a3.79,3.79,0,0,1,2.91-1.31c1.37,0,2.4.72,2.4,2v1.71a4,4,0,0,0-3.15-1.3,3.11,3.11,0,0,0-3.32,3.13,3.16,3.16,0,0,0,3.32,3.14,4.13,4.13,0,0,0,3.15-1.31Zm-17.34,0h1.47v-6.72a3.46,3.46,0,0,1,2.57-1.52,2.49,2.49,0,0,1,.59.06V117.6a4.05,4.05,0,0,0-3.16,1.73V117.8h-1.47Zm-11.16,0h1.63V115.63h4.17v-1.45h-9.94v1.45h4.14Z"/><path class="cls-1" d="M176.68,126.05l3.14-3.54L176.68,119h-1.47l3.14,3.48-3.14,3.54Zm-2.83,0,3.14-3.54L173.85,119h-1.47l3.14,3.48-3.14,3.54Z"/><path class="cls-2" d="M148.05,129.66l-.23,1.34a4.62,4.62,0,0,0,1.08.14,2.82,2.82,0,0,0,2.79-1.93l4.75-11.41h-1.61l-3.14,7.78-3.16-7.78h-1.6l4,9.58-.63,1.44a1.36,1.36,0,0,1-1.41,1,2.25,2.25,0,0,1-.81-.16m-8.58-2.14a2.36,2.36,0,0,0,1.76-.61l-.43-1.1a1.4,1.4,0,0,1-1,.4c-.65,0-1-.52-1-1.22v-5.9h1.92V117.8h-1.92v-2.6h-1.48v2.6h-1.57v1.29h1.57v6.21a1.94,1.94,0,0,0,2.11,2.22m-11.8-.23h1.48V117.8h-1.48Zm.73-11.09a1,1,0,0,0,1-1,1,1,0,0,0-2,0,1,1,0,0,0,1,1m-12.1,11.09h1.47v-6.72a3.48,3.48,0,0,1,2.58-1.52,2.61,2.61,0,0,1,.59.06V117.6a4.05,4.05,0,0,0-3.17,1.73V117.8H116.3Zm-9.29,0h1.47V117.8H107v7a3.62,3.62,0,0,1-2.81,1.44c-1.28,0-2.12-.5-2.12-2.17V117.8H100.6v6.7c0,2.06,1,3,3,3A4.64,4.64,0,0,0,107,126Zm-21.47-4.76a4.69,4.69,0,0,0,4.73,5,4.08,4.08,0,0,0,3.48-1.65l-1-.9a2.89,2.89,0,0,1-2.42,1.24c-2,0-3.28-1.58-3.28-3.68s1.26-3.65,3.28-3.65a2.83,2.83,0,0,1,2.42,1.23l1-.9a4.08,4.08,0,0,0-3.48-1.65,4.68,4.68,0,0,0-4.73,5m-11.32-3.75a3.08,3.08,0,0,1,3.13,3.16H71.12a3.17,3.17,0,0,1,3.1-3.16m-4.65,3.75a4.7,4.7,0,0,0,4.83,5,5.16,5.16,0,0,0,3.77-1.45l-.71-1a4.11,4.11,0,0,1-2.92,1.2A3.34,3.34,0,0,1,71.12,123H78.8v-.37c0-2.85-1.69-5.09-4.56-5.09a4.74,4.74,0,0,0-4.67,5m-16.63,2.91a6.48,6.48,0,0,0,5,2.08c3.54,0,4.83-1.94,4.83-3.85,0-2.75-2.43-3.42-4.57-4-1.67-.45-3.19-.84-3.19-2.16s1.12-2.08,2.7-2.08A5,5,0,0,1,61.53,117l1-1.2A6.16,6.16,0,0,0,57.85,114c-2.57,0-4.5,1.48-4.5,3.64,0,2.57,2.34,3.16,4.44,3.71,1.73.47,3.33.91,3.33,2.48,0,1-.75,2.26-3.09,2.26a5.56,5.56,0,0,1-4.13-1.87Z"/></g></svg>